<svg xmlns="http://www.w3.org/2000/svg" viewBox="0 0 158 36" fill="none">
  <g transform="translate(0,2) scale(0.064)" color="#0a0a0c"><path d="M147.789 394.059C214.872 439.472 307.74 425.816 359.214 362.946L371.749 347.654L437.045 393.713L423.39 410.225C385.37 456.004 331.287 486.708 271.399 496.516C211.059 506.557 151.221 494.72 102.868 463.262C50.9889 429.616 15.9579 377.523 4.20937 316.703C-1.75472 286.404 -1.3776 255.258 5.31847 225.103C12.0145 194.947 24.8939 166.394 43.1963 141.127L55.4452 124.132L120.503 170.19L109.04 186.311C61.1408 253.994 78.4657 347.194 147.789 394.059Z" fill="currentColor"/><path d="M500 310.578L428.222 321.724L386.423 70.7041L126.55 111.075L114.992 41.7101L377.391 0.879109C385.717 -0.444061 394.224 -0.272305 402.485 1.38576L405.059 1.91543C418.429 4.93491 430.565 11.7347 439.92 21.4473C449.274 31.16 455.423 43.3453 457.581 56.4489L500 310.578Z" fill="currentColor"/><path d="M257.046 329.232C306.454 329.232 346.506 290.526 346.506 242.779C346.506 195.033 306.454 156.327 257.046 156.327C207.639 156.327 167.586 195.033 167.586 242.779C167.586 290.526 207.639 329.232 257.046 329.232Z" fill="currentColor"/></g>
  <text x="44" y="26" font-family="ui-sans-serif, system-ui, -apple-system, 'Segoe UI', sans-serif" font-size="19" font-weight="700" letter-spacing="-0.4" fill="#0a0a0c">Taprail</text>
</svg>
